<svg width="1019.4841999999999" height="436.68123" xmlns="http://www.w3.org/2000/svg">
 <g>
  <title>background</title>
  <rect x="-1" y="-1" width="1021.4842" height="438.68123" id="canvas_background" fill="none"/>
 </g>

 <g>
  <title>Layer 1</title>
  <path d="m223.77018,243.61425a9.75072,9.75072 0 1 0 -19.40734,1.28194l-28.01439,36.68607a13.58254,13.58254 0 0 0 1.83575,14.91417l2.19759,2.56354l10.083,-2.01667l11.42794,-10.08331l-1.34463,-11.42774l14.1167,-22.18324l-0.01825,-0.01592a9.74283,9.74283 0 0 0 9.12363,-9.71884z" fill="#ffb9b9" id="svg_1"/>
  <polygon points="30.041 422.968 25.468 405.984 88.8 380.265 95.549 405.331 30.041 422.968" fill="#ffb8b8" id="svg_2"/>
  <path d="m14.7441,431.73189l-14.7441,-54.76212l0.69264,-0.18651a22.07516,22.07516 0 0 1 27.054,15.57522l0.00037,0.00135l9.00509,33.44687l-22.008,5.92519z" fill="#0984e3" id="svg_3"/>
  <polygon points="117.278 420.254 103.054 409.91 136.185 350.121 157.179 365.388 117.278 420.254" fill="#ffb8b8" id="svg_4"/>
  <path d="m110.8789,436.68122l-45.86612,-33.35531l0.42187,-0.58015a22.07517,22.07517 0 0 1 30.8348,-4.87041l0.00114,0.00082l28.01339,20.37244l-13.40508,18.43261z" fill="#0984e3" id="svg_5"/>
  <path d="m238.19235,336.70418l-35.795,-34.77263a18.07626,18.07626 0 0 0 -23.66833,-1.3221l-67.58632,75.08366l6.05018,9.41084l64.53278,-43.69434l43.69437,57.13867l41.67764,-20.83841l-28.90532,-41.00569z" fill="#2f2e41" id="svg_6"/>
  <path d="m222.73149,344.09868l-26.21673,-2.01667l-18.986,-4.60272a9.75256,9.75256 0 1 0 -1.85,12.65572l-0.00277,0.01364l11.42793,4.70553l49.07181,16.80551l6.05,-4.70553l-19.49424,-22.85548z" fill="#ffb9b9" id="svg_7"/>
  <polygon points="285.92 416.699 271.131 426.11 253.653 426.11 172.315 395.86 53.332 417.371 49.971 391.826 158.871 344.099 254.326 375.693 285.92 416.699" fill="#2f2e41" id="svg_8"/>
  <circle cx="254.32577" cy="227.13245" r="26.21658" fill="#ffb9b9" id="svg_9"/>
  <path d="m322.15948,331.80377a150.631,150.631 0 0 1 -7.3877,46.59159l-1.96286,6.03657l-9.4111,43.0221l-10.08328,2.68886l-7.39442,-9.41107l-14.78884,-10.7555l-10.75552,-17.47771l-9.22284,-15.367l-2.87712,-4.79967l-10.08331,-50.41649l-38.31653,-21.511l-12.77217,-2.01667l2.68889,-7.39442l11.42774,-15.46106l11.42768,-1.34449l3.36111,-2.68888l2.68888,1.34443l14.82257,5.71013l48.05688,-20.304l7.03142,1.14951l24.19988,20.16661a150.49912,150.49912 0 0 1 9.35064,52.23816z" fill="#0984e3" id="svg_10"/>
  <polygon points="314.825 325.949 289.281 342.754 251.153 377.131 248.276 372.332 240.209 331.999 242.226 331.999 263.065 293.683 314.825 325.949" opacity="0.1" id="svg_11"/>
  <polygon points="263.065 289.649 242.226 327.965 230.126 341.41 219.371 344.099 248.276 375.693 289.281 338.721 314.825 321.915 263.065 289.649" fill="#0984e3" id="svg_12"/>
  <path d="m233.93462,207.63927l-2.8405,1.09286a3.96532,3.96532 0 0 1 -1.06033,-5.50666q0.02295,-0.03393 0.04661,-0.06735l-5.24917,-0.24564a39.63744,39.63744 0 0 1 59.17341,-4.76951c0.239,-0.8231 2.84419,0.7783 3.90783,2.40209c0.35739,-1.33937 2.8001,5.13521 3.66407,9.71188c0.4,-1.52384 1.93791,0.9362 0.59056,3.2967c0.8537,-0.12472 1.23931,2.05947 0.57843,3.27633c0.934,-0.43878 0.77654,2.16855 -0.23609,3.911c1.3327,-0.11841 -0.1137,27.33122 -20.1137,25.33122c-1.39236,-6.39749 -1,-6 -2.63957,-14.22639c-0.76312,-0.81 -1.59882,-1.54779 -2.43315,-2.28425l-4.51259,-3.9833c-5.2473,-4.63182 -10.02063,-10.34844 -17.01093,-12.07955c-4.80393,-1.18968 -7.84143,-1.45827 -5.22344,-6.87151c-2.36532,0.98706 -4.57411,2.45493 -6.96063,3.37169c0.03206,-0.7564 0.36561,-1.60282 0.31919,-2.35961z" fill="#2f2e41" id="svg_13"/>
  <circle cx="267.43406" cy="230.15744" r="4.70554" fill="#ffb9b9" id="svg_14"/>
  <rect x="-175.661775" y="605.821736" width="21.61009" height="21.61009" transform="rotate(-86.1899185180664 -313.1754150390625,254.44578552246088) " fill="#e6e6e6" id="svg_15"/>
  <path d="m34.08564,130.47195l26.18282,1.74368l-1.74369,26.18282l-26.18282,-1.74368l1.74369,-26.18282zm23.22493,28.98908l-23.90605,-1.59206l-1.59206,23.906l23.90605,1.59206l1.59206,-23.906z" fill="#ccc" id="svg_16"/>
  <rect x="93.436298" y="116.697225" width="21.61009" height="21.61009" transform="rotate(-12.126749992370605 -147.57237243652352,-172.07461547851565) " fill="#e6e6e6" id="svg_17"/>
  <path d="m155.02052,44.85018l5.51255,25.65526l-25.65526,5.51254l-5.51254,-25.65526l25.65525,-5.51254zm-21.49782,30.29204l-5.0332,-23.42436l-23.42437,5.03319l5.03319,23.42438l23.42438,-5.03321z" fill="#ccc" id="svg_18"/>
  <rect x="-75.342567" y="432.3158" width="21.61008" height="21.61009" transform="rotate(-43.12712097167969 -301.945556640625,39.64171981811526) " fill="#e6e6e6" id="svg_19"/>
  <path d="m163.55666,154.33725l-19.15156,17.93874l-17.93873,-19.15156l19.15156,-17.93872l17.93873,19.15154zm-37.03758,-2.82544l17.48621,-16.37883l-16.37884,-17.48618l-17.48621,16.37884l16.37884,17.48617z" fill="#ccc" id="svg_20"/>
  <path d="m963.2771,0l-639.38277,0a17.59849,17.59849 0 0 0 -17.59851,17.59849l0,356.2522a17.59854,17.59854 0 0 0 17.59851,17.59857l639.38277,0a17.59856,17.59856 0 0 0 17.59851,-17.59857l0,-356.2522a17.59852,17.59852 0 0 0 -17.59851,-17.59849z" fill="#3f3d56" id="svg_21"/>
  <rect x="329.89003" y="31.10145" width="627.39127" height="353.91303" fill="#fff" id="svg_22"/>
  <circle cx="643.04942" cy="15.01449" r="6.43477" fill="#fff" id="svg_23"/>
  <polygon points="777.858 385.015 329.89 385.015 329.89 31.102 777.858 385.015" fill="#f2f2f2" id="svg_24"/>
  <circle cx="428.05798" cy="298.22423" r="60.3068" fill="#0984e3" id="svg_25"/>
  <path d="m441.48292,343.55061a75.01577,75.01577 0 1 1 75.01581,-75.01575a75.01578,75.01578 0 0 1 -75.01581,75.01575zm0,-149.051a74.03519,74.03519 0 1 0 74.03518,74.03528a74.03518,74.03518 0 0 0 -74.03522,-74.03521l0.00004,-0.00007z" fill="#3f3d56" id="svg_26"/>
  <rect x="753.43694" y="214.96957" width="58.60522" height="12.24586" fill="#3f3d56" id="svg_27"/>
  <rect x="697.99083" y="148.62679" width="169.49743" height="5.24823" fill="#3f3d56" id="svg_28"/>
  <rect x="697.99083" y="169.24617" width="169.49743" height="5.24823" fill="#3f3d56" id="svg_29"/>
  <rect x="697.99083" y="189.86555" width="169.49743" height="5.24823" fill="#3f3d56" id="svg_30"/>
  <rect x="888.40147" y="52.28163" width="24.49176" height="24.49173" fill="#0984e3" id="svg_31"/>
  <path d="m924.26435,88.14451l-29.74,0l0,-29.74l29.74,0l0,29.74zm-28.4469,-31.033l27.15381,0l0,2.5861l-27.15387,0l0.00006,-2.5861z" fill="#ccc" id="svg_32"/>
  <path d="m998.49128,378.57969l-61.22937,0l0,-4.41156a0.87466,0.87466 0 0 0 -0.87463,-0.87469l-20.993,0a0.87468,0.87468 0 0 0 -0.87476,0.87463l0,4.41162l-13.12042,0l0,-4.41156a0.87468,0.87468 0 0 0 -0.8747,-0.87469l-20.9929,0a0.87467,0.87467 0 0 0 -0.87469,0.87469l0,0l0,4.41156l-13.12055,0l0,-4.41156a0.87467,0.87467 0 0 0 -0.87469,-0.87469l-20.993,0a0.87468,0.87468 0 0 0 -0.8747,0.87469l0,0l0,4.41156l-13.12052,0l0,-4.41156a0.87468,0.87468 0 0 0 -0.8747,-0.87469l-20.99292,0a0.87466,0.87466 0 0 0 -0.87469,0.87463l0,4.41162l-13.12054,0l0,-4.41156a0.87468,0.87468 0 0 0 -0.8747,-0.87469l-20.99292,0a0.87467,0.87467 0 0 0 -0.87469,0.87469l0,0l0,4.41156l-13.12061,0l0,-4.41156a0.87467,0.87467 0 0 0 -0.87469,-0.87469l-20.99292,0a0.87468,0.87468 0 0 0 -0.8747,0.87469l0,0l0,4.41156l-13.12054,0l0,-4.41156a0.87468,0.87468 0 0 0 -0.8747,-0.87469l-164.44446,0a0.87467,0.87467 0 0 0 -0.87469,0.87469l0,0l0,4.41156l-13.12061,0l0,-4.41156a0.87467,0.87467 0 0 0 -0.87469,-0.87469l-20.99286,0a0.87468,0.87468 0 0 0 -0.8747,0.87469l0,0l0,4.41156l-13.1206,0l0,-4.41156a0.87466,0.87466 0 0 0 -0.87463,-0.87469l-20.993,0a0.87467,0.87467 0 0 0 -0.87469,0.87469l0,0l0,4.41156l-13.1206,0l0,-4.41156a0.87467,0.87467 0 0 0 -0.87469,-0.87469l-20.99292,0a0.87468,0.87468 0 0 0 -0.8747,0.87469l0,0l0,4.41156l-13.12054,0l0,-4.41156a0.87467,0.87467 0 0 0 -0.87469,-0.87469l-20.99292,0a0.87468,0.87468 0 0 0 -0.8747,0.87469l0,0l0,4.41156l-13.1206,0l0,-4.41156a0.87468,0.87468 0 0 0 -0.8747,-0.87469l-20.99294,0a0.87468,0.87468 0 0 0 -0.87469,0.87463l0,4.41162l-13.12056,0l0,-4.41156a0.87467,0.87467 0 0 0 -0.87466,-0.87469l-20.99292,0a0.8747,0.8747 0 0 0 -0.8747,0.87469l0,0l0,4.41156l-40.23647,0a20.99292,20.99292 0 0 0 -20.99287,20.99292l0,9.4925a20.99291,20.99291 0 0 0 20.99287,20.99286l698.01416,0a20.99293,20.99293 0 0 0 20.99292,-20.99286l0,-9.4925a20.9929,20.9929 0 0 0 -20.9929,-20.99292z" fill="#3f3d56" id="svg_33"/>
 </g>
</svg>