<svg width="856.385" height="559.94" xmlns="http://www.w3.org/2000/svg">
 <g>
  <title>background</title>
  <rect x="-1" y="-1" width="858.385" height="561.94" id="canvas_background" fill="none"/>
 </g>

 <g>
  <title>Layer 1</title>
  <rect id="Rectangle_113" width="94.644" height="1.803" fill="#0984e3" y="36.956017" x="411.027008"/>
  <rect id="Rectangle_114" width="300.158" height="1.803" fill="#0984e3" y="36.956017" x="36.955994"/>
  <circle id="Ellipse_115" cx="36.956" cy="37.856993" r="36.956001" fill="#0984e3"/>
  <circle id="Ellipse_116" cx="205.512976" cy="37.856993" r="36.956001" fill="#0984e3"/>
  <path id="Path_748" d="m374.066,75.716a37.858,37.858 0 1 1 37.858,-37.858a37.858,37.858 0 0 1 -37.858,37.858zm0,-73.913a36.055,36.055 0 1 0 36.055,36.055a36.055,36.055 0 0 0 -36.055,-36.055z" fill="#0984e3"/>
  <path id="Path_749" d="m542.623,75.716a37.858,37.858 0 1 1 37.858,-37.858a37.858,37.858 0 0 1 -37.858,37.858zm0,-73.913a36.055,36.055 0 1 0 36.055,36.055a36.055,36.055 0 0 0 -36.055,-36.055z" fill="#0984e3"/>
  <path id="Path_395" d="m34.111,48.876a2.993,2.993 0 0 1 -1.8,-0.6l-0.032,-0.024l-6.783,-5.188a3.014,3.014 0 0 1 3.668,-4.784l4.393,3.369l10.381,-13.544a3.013,3.013 0 0 1 4.224,-0.558l0,0l-0.064,0.089l0.066,-0.089a3.016,3.016 0 0 1 0.557,4.225l-12.211,15.923a3.015,3.015 0 0 1 -2.4,1.175l0.001,0.006z" fill="#e6e6e6"/>
  <path id="Path_552" d="m656.58,195.96a14.214,14.214 0 0 1 1.987,1.108l63.154,-26.954l2.253,-16.636l25.235,-0.155l-1.491,38.158l-83.357,22.047a14.939,14.939 0 0 1 -0.631,1.7a14.411,14.411 0 1 1 -7.151,-19.265l0.001,-0.003z" fill="#feb8b8"/>
  <path id="Path_553" d="m758.386,541.72099l-17.263,0l-8.212,-66.584l25.477,0l-0.002,66.584z" fill="#feb8b8"/>
  <path id="Path_554" d="m728.793,536.789l33.292,0l0,20.955l-54.254,0a20.962,20.962 0 0 1 20.962,-20.962l0,0l0,0.007z" fill="#2f2e41"/>
  <path id="Path_555" d="m825.522,536.84399l-17.178,1.69l-14.7,-65.458l25.355,-2.491l6.523,66.259z" fill="#feb8b8"/>
  <path id="Path_556" d="m795.578,534.84l33.126,-3.263l2.054,20.857l-53.981,5.317a20.958,20.958 0 0 1 18.8,-22.911l0.001,0z" fill="#2f2e41"/>
  <ellipse id="Ellipse_84" cx="763.191002" cy="48.271" rx="34.583" ry="34.583" fill="#feb8b8"/>
  <path id="Path_557" d="m737.265,528.25499a6.3,6.3 0 0 1 -6.217,-5.21c-8.929,-49.59 -38.141,-211.772 -38.84,-216.268a1.991,1.991 0 0 1 -0.023,-0.312l0,-12.094a2.1,2.1 0 0 1 0.393,-1.228l3.858,-5.4a2.082,2.082 0 0 1 1.611,-0.88c22,-1.031 94.036,-4.054 97.516,0.294l0,0c3.495,4.365 2.253,17.611 1.971,20.22l0.014,0.272l32.366,206.982a6.353,6.353 0 0 1 -5.233,7.23l-20.214,3.33a6.366,6.366 0 0 1 -7.076,-4.355c-6.252,-19.978 -27.216,-87.184 -34.482,-113.19a0.7,0.7 0 0 0 -1.381,0.2c0.363,24.79 1.24,88.036 1.549,109.881l0.032,2.353a6.362,6.362 0 0 1 -5.763,6.387l-19.492,1.766a5.871,5.871 0 0 1 -0.589,0.022z" fill="#2f2e41"/>
  <path id="Path_99" d="m741.24301,96.453c-6.035,3.588 -9.647,10.18 -11.719,16.9a160.072,160.072 0 0 0 -6.877,38.242l-2.191,38.859l-27.113,103.028c23.5,19.883 37.053,15.363 68.686,-0.9s35.247,5.422 35.247,5.422l6.325,-87.663l9.037,-95.793a42.485,42.485 0 0 0 -6.846,-6.581a69.923,69.923 0 0 0 -59.761,-12.673l-4.788,1.159z" fill="#0984e3"/>
  <path id="Path_558" d="m732.437,216.76701a14.828,14.828 0 0 1 2.112,0.986l62.447,-31.259l1.036,-16.933l25.759,-1.776l1.38,38.6l-83.45,27.6a14.784,14.784 0 1 1 -9.283,-17.223l-0.001,0.005z" fill="#feb8b8"/>
  <path id="Path_101" d="m812.188,114.97999c15.363,5.422 18.071,64.171 18.071,64.171c-18.075,-9.941 -39.765,6.326 -39.765,6.326s-4.518,-15.365 -9.941,-35.246a34.54,34.54 0 0 1 7.229,-32.535s9.041,-8.141 24.406,-2.716z" fill="#0984e3"/>
  <path id="Path_102" d="m794.194,57.41401c-4.309,-3.447 -10.187,2.816 -10.187,2.816l-3.447,-31.016s-21.543,2.581 -35.334,-0.862s-15.943,12.5 -15.943,12.5a110.654,110.654 0 0 1 -0.431,-19.391c0.862,-7.756 12.064,-15.512 31.885,-20.683s30.162,17.236 30.162,17.236c13.796,6.889 7.609,42.851 3.295,39.4z" fill="#2f2e41"/>
  <rect id="Rectangle_110" width="737.385" height="2.19" fill="#a09b9b" y="557.750015" x="119.000015"/>
  <path id="Path_438" d="m190.135,519.076a19.474,19.474 0 0 0 18.806,-3.313c6.587,-5.528 8.652,-14.636 10.332,-23.07l4.97,-24.945l-10.405,7.165c-7.483,5.152 -15.134,10.47 -20.316,17.933s-7.443,17.651 -3.28,25.726" fill="#0984e3"/>
  <path id="Path_439" d="m191.742,551.013c-1.31,-9.542 -2.657,-19.206 -1.738,-28.85c0.816,-8.565 3.429,-16.93 8.749,-23.789a39.574,39.574 0 0 1 10.153,-9.2c1.015,-0.641 1.95,0.968 0.939,1.606a37.622,37.622 0 0 0 -14.885,17.955c-3.24,8.241 -3.76,17.224 -3.2,25.977c0.338,5.294 1.053,10.553 1.774,15.805a0.964,0.964 0 0 1 -0.65,1.144a0.936,0.936 0 0 1 -1.144,-0.65l0.002,0.002z" fill="#f2f2f2"/>
  <path id="Path_442" d="m201.169,535.703a14.336,14.336 0 0 0 12.491,6.447c6.323,-0.3 11.595,-4.713 16.34,-8.9l14.036,-12.392l-9.289,-0.444c-6.68,-0.32 -13.533,-0.618 -19.9,1.442s-12.231,7.018 -13.394,13.6" fill="#0984e3"/>
  <path id="Path_443" d="m188.04,556.498c6.3,-11.156 13.618,-23.555 26.685,-27.518a29.779,29.779 0 0 1 11.224,-1.159c1.192,0.1 0.894,1.94 -0.3,1.837a27.665,27.665 0 0 0 -17.912,4.739c-5.051,3.438 -8.983,8.217 -12.311,13.286c-2.039,3.1 -3.865,6.341 -5.691,9.573c-0.582,1.032 -2.282,0.287 -1.695,-0.758z" fill="#f2f2f2"/>
  <path stroke="null" id="Path_138" d="m624.513607,247.665702l-301.511786,0a5.590149,5.853 0 0 1 -5.583463,-5.846l0,-78.309a5.590149,5.853 0 0 1 5.583463,-5.846l301.511786,0a5.590149,5.853 0 0 1 5.583463,5.846l0,78.309a5.590149,5.853 0 0 1 -5.583463,5.846zm-301.511786,-87.662a3.35428,3.512 0 0 0 -3.35046,3.508l0,78.309a3.353325,3.511 0 0 0 3.35046,3.50801l301.511786,0a3.353325,3.511 0 0 0 3.35046,-3.50801l0,-78.31a3.353325,3.511 0 0 0 -3.35046,-3.508l-301.511786,0.001z" fill="#0984e3"/>
  <path id="Path_139" d="m410.16268,183.783692a3.969,3.969 0 1 0 0,7.938l187.108,0a3.969,3.969 0 0 0 0,-7.938l-187.108,0z" fill="#0984e3"/>
  <path id="Path_140" d="m410.16268,207.598702a3.969,3.969 0 1 0 0,7.938l80.513,0a3.969,3.969 0 1 0 0,-7.938l-80.513,0z" fill="#0984e3"/>
  <circle id="Ellipse_18" cx="355.387681" cy="199.479702" r="23.813999" fill="#0984e3"/>
  <path id="Path_395-2" d="m351.64468,212.714702a3.689,3.689 0 0 1 -2.219,-0.738l-0.04,-0.03l-8.358,-6.394a3.714,3.714 0 0 1 4.52,-5.9l5.414,4.151l12.793,-16.69a3.713,3.713 0 0 1 5.205,-0.688l0,0l-0.079,0.11l0.082,-0.11a3.717,3.717 0 0 1 0.687,5.206l-15.047,19.634a3.715,3.715 0 0 1 -2.954,1.448l-0.004,0.001z" fill="#e6e6e6"/>
 </g>
</svg>