<svg width="90" height="126" viewBox="0 0 90 126" fill="none" xmlns="http://www.w3.org/2000/svg">
<g clip-path="url(#clip0)">
<path d="M28.9283 97.4468C28.9283 97.4468 24.3285 100.237 32.2019 101.181C41.7404 102.315 46.6151 102.153 57.1267 100.078C57.1267 100.078 59.8904 101.885 63.7496 103.451C40.186 113.984 10.42 102.84 28.9283 97.4468Z" fill="#5382A1"/>
<path d="M26.0488 83.7017C26.0488 83.7017 20.8898 87.6848 28.769 88.5346C38.9582 89.6309 47.0048 89.7207 60.9287 86.9244C60.9287 86.9244 62.8546 88.9607 65.8828 90.0744C37.3927 98.7633 5.65995 90.7596 26.0488 83.7017Z" fill="#5382A1"/>
<path d="M50.323 60.386C56.1293 67.3577 48.7975 73.6316 48.7975 73.6316C48.7975 73.6316 63.5401 65.694 56.7695 55.754C50.446 46.4849 45.5964 41.8788 71.8491 25.9993C71.8491 25.9993 30.6412 36.7332 50.323 60.3856" fill="#E76F00"/>
<path d="M81.488 107.613C81.488 107.613 84.8919 110.538 77.739 112.801C64.1378 117.099 21.1288 118.397 9.18099 112.973C4.88623 111.024 12.9404 108.32 15.4738 107.752C18.1159 107.155 19.626 107.266 19.626 107.266C14.8496 103.757 -11.2466 114.157 6.37056 117.135C54.4146 125.261 93.9499 113.476 81.488 107.613Z" fill="#5382A1"/>
<path d="M31.1399 69.4606C31.1399 69.4606 9.26321 74.8803 23.3931 76.8479C29.359 77.681 41.2521 77.4927 52.3304 76.5244C61.3842 75.7283 70.4752 74.0344 70.4752 74.0344C70.4752 74.0344 67.2828 75.4604 64.9732 77.1052C42.7574 83.1992 -0.159624 80.3643 12.1956 74.1308C22.6445 68.863 31.1403 69.4606 31.1403 69.4606" fill="#5382A1"/>
<path d="M70.385 92.3396C92.9688 80.1001 82.5269 68.3382 75.2388 69.923C73.4523 70.3105 72.6559 70.6464 72.6559 70.6464C72.6559 70.6464 73.3191 69.5632 74.5857 69.0943C89.0038 63.8073 100.093 84.687 69.9312 92.9564C69.9312 92.9568 70.2808 92.6311 70.385 92.3396Z" fill="#5382A1"/>
<path d="M56.7695 0.357541C56.7695 0.357541 69.2767 13.4069 44.9071 33.472C25.3654 49.5682 40.4509 58.7456 44.899 69.2312C33.4921 58.4973 25.1208 49.048 30.7371 40.2537C38.9798 27.3435 61.8157 21.0846 56.7695 0.357178" fill="#E76F00"/>
<path d="M33.3593 125.506C55.0367 126.953 88.3245 124.703 89.1128 114.005C89.1128 114.005 87.5975 118.06 71.1977 121.281C52.6957 124.912 29.8762 124.488 16.3416 122.161C16.342 122.161 19.1123 124.553 33.3597 125.506" fill="#5382A1"/>
</g>
<defs>
<clipPath id="clip0">
<rect width="89.2201" height="125.768" fill="white" transform="translate(0.15686 0.222656)"/>
</clipPath>
</defs>
</svg>
