<svg width="384.00000000000006" height="384.00000000000006" xmlns="http://www.w3.org/2000/svg">

 <g>
  <title>background</title>
  <rect fill="none" id="canvas_background" height="402" width="582" y="-1" x="-1"/>
 </g>
 <g>
  <title>Layer 1</title>
  <path id="svg_1" d="m368,154.66797l-352,0c-8.83203,0 -16,-7.16797 -16,-16s7.16797,-16 16,-16l352,0c8.83203,0 16,7.16797 16,16s-7.16797,16 -16,16zm0,0" fill="#95a9c6"/>
  <path fill="#0984e3" id="svg_2" d="m368,32l-352,0c-8.83203,0 -16,-7.16797 -16,-16s7.16797,-16 16,-16l352,0c8.83203,0 16,7.16797 16,16s-7.16797,16 -16,16zm0,0"/>
  <path fill="#0984e3" id="svg_3" d="m368,277.33203l-352,0c-8.83203,0 -16,-7.16797 -16,-16s7.16797,-16 16,-16l352,0c8.83203,0 16,7.16797 16,16s-7.16797,16 -16,16zm0,0"/>
 </g>
</svg>