<svg width="127" height="126" viewBox="0 0 127 126" fill="none" xmlns="http://www.w3.org/2000/svg">
<g clip-path="url(#clip0)">
<path d="M63.2729 0.258789C31.4221 0.258789 33.4108 14.1253 33.4108 14.1253L33.4462 28.4915H63.8408V32.8046H21.3739C21.3739 32.8046 0.992615 30.4841 0.992615 62.7473C0.992615 95.0115 18.7819 93.8673 18.7819 93.8673H29.3985V78.8955C29.3985 78.8955 28.8262 61.0364 46.9039 61.0364H77.0499C77.0499 61.0364 93.9869 61.3111 93.9869 44.6032V16.9776C93.9869 16.9776 96.5592 0.258789 63.2729 0.258789ZM46.5133 9.91976C47.2316 9.91911 47.9429 10.0607 48.6066 10.3363C49.2703 10.6119 49.8733 11.0163 50.3812 11.5261C50.8891 12.036 51.2918 12.6414 51.5664 13.3077C51.8409 13.974 51.9819 14.6881 51.9813 15.4092C51.9819 16.1302 51.8409 16.8443 51.5664 17.5106C51.2918 18.1769 50.8891 18.7823 50.3812 19.2922C49.8733 19.8021 49.2703 20.2064 48.6066 20.482C47.9429 20.7577 47.2316 20.8992 46.5133 20.8986C45.7951 20.8992 45.0837 20.7577 44.4201 20.482C43.7564 20.2064 43.1533 19.8021 42.6454 19.2922C42.1376 18.7823 41.7348 18.1769 41.4603 17.5106C41.1857 16.8443 41.0447 16.1302 41.0453 15.4092C41.0447 14.6881 41.1857 13.974 41.4603 13.3077C41.7348 12.6414 42.1376 12.036 42.6454 11.5261C43.1533 11.0163 43.7564 10.6119 44.4201 10.3363C45.0837 10.0607 45.7951 9.91911 46.5133 9.91976Z" fill="url(#paint0_linear)"/>
<path d="M64.1764 125.56C96.0271 125.56 94.0384 111.693 94.0384 111.693L94.0031 97.3276H63.6079V93.0145H106.075C106.075 93.0145 126.456 95.335 126.456 63.0708C126.456 30.8071 108.667 31.9513 108.667 31.9513H98.0502V46.9227C98.0502 46.9227 98.6226 64.7817 80.5449 64.7817H50.3988C50.3988 64.7817 33.4619 64.507 33.4619 81.2154V108.842C33.4619 108.842 30.89 125.56 64.1759 125.56H64.1764ZM80.9359 115.9C80.2177 115.9 79.5064 115.759 78.8427 115.483C78.179 115.208 77.5759 114.803 77.0681 114.293C76.5602 113.784 76.1574 113.178 75.8829 112.512C75.6083 111.846 75.4673 111.131 75.468 110.41C75.4673 109.689 75.6082 108.975 75.8827 108.309C76.1573 107.642 76.56 107.037 77.0679 106.527C77.5758 106.017 78.1788 105.613 78.8426 105.337C79.5063 105.061 80.2177 104.92 80.9359 104.921C81.6542 104.92 82.3655 105.061 83.0292 105.337C83.6929 105.613 84.2959 106.017 84.8038 106.527C85.3117 107.037 85.7144 107.642 85.989 108.308C86.2636 108.975 86.4046 109.689 86.4039 110.41C86.4046 111.131 86.2636 111.845 85.989 112.511C85.7144 113.178 85.3117 113.783 84.8038 114.293C84.2959 114.803 83.6929 115.207 83.0292 115.483C82.3655 115.758 81.6542 115.9 80.9359 115.899V115.9Z" fill="url(#paint1_linear)"/>
</g>
<defs>
<linearGradient id="paint0_linear" x1="13.0497" y1="11.5289" x2="75.467" y2="73.0822" gradientUnits="userSpaceOnUse">
<stop stop-color="#387EB8"/>
<stop offset="1" stop-color="#366994"/>
</linearGradient>
<linearGradient id="paint1_linear" x1="51.2126" y1="51.211" x2="118.23" y2="114.317" gradientUnits="userSpaceOnUse">
<stop stop-color="#FFE052"/>
<stop offset="1" stop-color="#FFC331"/>
</linearGradient>
<clipPath id="clip0">
<rect width="125.768" height="125.768" fill="white" transform="translate(0.92041 0.222656)"/>
</clipPath>
</defs>
</svg>
