<svg width="160" height="119.7" viewBox="0 0 125 94" fill="none" xmlns="http://www.w3.org/2000/svg">
<g clip-path="url(#clip0)">
<path d="M107.559 53.8282C103.21 53.8506 99.4307 54.8954 96.2661 56.4399C95.1045 54.1458 93.9434 52.102 93.7388 50.6028C93.5107 48.8542 93.2378 47.7865 93.5107 45.697C93.7842 43.6074 95.0137 40.6319 94.9907 40.4049C94.9683 40.1779 94.7173 39.1102 92.2129 39.0878C89.7085 39.0649 87.5454 39.5647 87.2949 40.2232C87.0444 40.8817 86.5664 42.3809 86.2475 43.925C85.8149 46.1967 81.2388 54.3046 78.6206 58.5519C77.7778 56.8943 77.0493 55.4404 76.8896 54.2822C76.6621 52.5336 76.3887 51.4659 76.6621 49.3763C76.9355 47.2868 78.165 44.3117 78.1421 44.0843C78.1191 43.8573 77.8686 42.7896 75.3642 42.7672C72.8594 42.7443 70.6963 43.244 70.4463 43.9026C70.1958 44.5616 69.9224 46.1056 69.3989 47.6048C68.875 49.1041 62.7959 62.6409 61.2021 66.1381C60.5581 67.5536 59.8824 68.9546 59.1758 70.3401C59.1758 70.3401 59.1528 70.4082 59.0845 70.5217C58.8624 70.9562 58.6349 71.3877 58.4018 71.8164V71.8388C58.0601 72.4525 57.6958 73.0199 57.5137 73.0199C57.3769 73.0199 57.1265 71.3848 57.5591 69.1589C58.4697 64.4576 60.6328 57.1442 60.6103 56.8943C60.6103 56.758 61.02 55.4862 59.1987 54.8272C57.4224 54.1687 56.7851 55.2587 56.6255 55.2587C56.4663 55.2587 56.352 55.645 56.352 55.645C56.352 55.645 58.3335 47.4232 52.5727 47.4232C48.9756 47.4232 44.0117 51.3524 41.5527 54.8954C38.7574 56.4128 35.9644 57.9346 33.1738 59.4607C31.831 60.2104 30.4419 60.96 29.144 61.6638C29.0527 61.5732 28.9619 61.4592 28.8706 61.3686C21.9033 53.9417 9.01659 48.6949 9.56298 38.7245C9.76806 35.0904 11.02 25.551 34.3125 13.9679C53.4834 4.54199 68.7388 7.15369 71.3799 12.9455C75.1592 21.2131 63.206 36.5667 43.397 38.7922C35.8379 39.6329 31.876 36.7255 30.8745 35.6354C29.8271 34.4996 29.6675 34.4314 29.2803 34.6588C28.6431 34.9998 29.0527 36.0217 29.2803 36.612C29.8725 38.1561 32.3086 40.8817 36.4297 42.2222C40.0727 43.4028 48.9297 44.0618 59.6538 39.928C71.6528 35.2945 81.0337 22.4167 78.2788 11.6285C75.5234 0.680942 57.3086 -2.93024 40.0727 3.17915C29.8271 6.81371 18.7158 12.5368 10.7241 19.9867C1.22948 28.8441 -0.273447 36.5438 0.341299 39.7692C2.55028 51.216 18.3745 58.6658 24.7041 64.1849C24.3852 64.3666 24.0889 64.5258 23.8389 64.6622C20.6738 66.2291 8.60644 72.5202 5.60106 79.1751C2.18602 86.7155 6.14794 92.1216 8.7661 92.8478C16.8945 95.0966 25.2505 91.0539 29.7358 84.3761C34.2212 77.6988 33.6748 69.0225 31.603 65.048C31.5801 65.0027 31.5576 64.9569 31.5117 64.9116C32.3315 64.4348 33.1738 63.935 33.9936 63.4582C35.5004 62.5696 37.0263 61.7138 38.5703 60.8913C37.7959 63.0037 37.2266 65.5248 36.9536 69.1589C36.6118 73.4291 38.3647 78.9705 40.6645 81.1507C41.6894 82.1054 42.896 82.1278 43.6704 82.1278C46.3569 82.1278 47.564 79.9018 48.9072 77.2672C50.5464 74.0423 52.0264 70.2948 52.0264 70.2948C52.0264 70.2948 50.1821 80.4245 55.1914 80.4245C57.0127 80.4245 58.8569 78.0622 59.6767 76.8586V76.881C59.6767 76.881 59.7222 76.8128 59.8135 76.654C59.9956 76.3588 60.1094 76.1767 60.1094 76.1767V76.1319C60.8379 74.8596 62.4775 71.9752 64.9136 67.1828C68.0557 61.0053 71.084 53.2832 71.084 53.2832C71.084 53.2832 71.3574 55.1681 72.2905 58.3025C72.8374 60.1422 73.9751 62.1635 74.8862 64.1167C74.1577 65.1391 73.7021 65.7065 73.7021 65.7065L73.7251 65.7294C73.1328 66.5014 72.4956 67.3416 71.7895 68.1599C69.3076 71.1121 66.3481 74.4968 65.938 75.4729C65.4595 76.6311 65.5737 77.4718 66.4849 78.1532C67.145 78.653 68.3286 78.7207 69.5356 78.653C71.7671 78.4937 73.3379 77.9487 74.1118 77.6082C75.3188 77.1766 76.7305 76.5176 78.0508 75.541C80.4873 73.7467 81.9668 71.1803 81.8306 67.7965C81.7622 65.934 81.1475 64.0714 80.396 62.3223C80.624 62.0047 80.8286 61.6867 81.0566 61.3686C84.9043 55.7585 87.8872 49.6033 87.8872 49.6033C87.8872 49.6033 88.1606 51.4883 89.0937 54.6231C89.5493 56.2129 90.4829 57.9391 91.3022 59.6195C87.6821 62.5498 85.4507 65.9564 84.6538 68.1823C83.2197 72.3161 84.3349 74.1782 86.4526 74.6098C87.4087 74.8143 88.7749 74.3599 89.7768 73.9283C91.0518 73.5197 92.5547 72.8159 93.9893 71.7706C96.4258 69.9767 98.7705 67.478 98.6338 64.0943C98.5654 62.5498 98.1557 61.0277 97.5864 59.5513C100.66 58.2801 104.622 57.5758 109.676 58.1661C120.515 59.4378 122.655 66.1834 122.245 69.023C121.835 71.8617 119.558 73.4062 118.807 73.883C118.055 74.3604 117.805 74.5192 117.874 74.8596C117.964 75.3594 118.329 75.337 118.966 75.2459C119.854 75.0871 124.659 72.9518 124.863 67.7279C125.205 61.0505 118.83 53.76 107.559 53.8282V53.8282ZM23.9526 81.9461C20.355 85.8524 15.3462 87.3288 13.1831 86.0799C10.8608 84.7395 11.7715 78.9706 16.1885 74.8372C18.875 72.3161 22.3359 69.9762 24.6357 68.5457C25.1592 68.2276 25.9336 67.7737 26.8672 67.2057C27.0264 67.1146 27.1177 67.0693 27.1177 67.0693L27.6641 66.7284C29.2803 72.6337 27.7324 77.8352 23.9526 81.9461V81.9461ZM50.1367 64.1849C48.8843 67.2286 46.2661 75.0189 44.6724 74.5874C43.3061 74.224 42.4634 68.3187 44.3989 62.4816C45.3779 59.5513 47.4497 56.0536 48.6567 54.6913C50.6147 52.5107 52.7778 51.7835 53.3013 52.6699C53.9619 53.8282 50.9106 62.277 50.1367 64.1849V64.1849ZM71.7441 74.4963C71.2202 74.769 70.7197 74.9507 70.4917 74.8143C70.3325 74.7233 70.7197 74.3599 70.7197 74.3599C70.7197 74.3599 73.4292 71.453 74.499 70.1355C75.1143 69.3635 75.8423 68.4551 76.6167 67.4327V67.7279C76.6167 71.2032 73.2466 73.5426 71.7436 74.4963H71.7441ZM88.4106 70.7034C88.0234 70.4307 88.0918 69.5223 89.3896 66.6831C89.8906 65.5701 91.0742 63.708 93.1011 61.9137C93.3286 62.6404 93.4883 63.3447 93.4653 64.0032C93.4424 68.3869 90.3008 70.022 88.4106 70.7034Z" fill="#CD6799"/>
</g>
<defs>
<clipPath id="clip0">
<rect width="125" height="93.5185" fill="white"/>
</clipPath>
</defs>
</svg>
