<svg width="868" height="731" xmlns="http://www.w3.org/2000/svg" xmlns:xlink="http://www.w3.org/1999/xlink" data-name="Layer 1">
 <defs>
  <linearGradient y2="0" x2="0.5" y1="1" x1="0.5" id="06147ff9-8cd2-48ac-a1c1-caecd7b6d6a5">
   <stop stop-opacity="0.25" stop-color="gray" offset="0"/>
   <stop stop-opacity="0.12" stop-color="gray" offset="0.54"/>
   <stop stop-opacity="0.1" stop-color="gray" offset="1"/>
  </linearGradient>
  <linearGradient xlink:href="#06147ff9-8cd2-48ac-a1c1-caecd7b6d6a5" y2="107" x2="136.5" y1="632" x1="136.5" id="a49b107c-cf66-4ec6-8282-86ab0caa351c"/>
  <linearGradient y2="0" x2="0.5" y1="1" x1="0.5" id="1f9811ff-c8f4-40a6-be63-e60ca0341cbe">
   <stop stop-opacity="0.12" offset="0"/>
   <stop stop-opacity="0.09" offset="0.55"/>
   <stop stop-opacity="0.02" offset="1"/>
  </linearGradient>
  <linearGradient xlink:href="#1f9811ff-c8f4-40a6-be63-e60ca0341cbe" y2="206" x2="732.5" y1="237" x1="732.5" id="b9a200bd-353c-4381-b6e1-073e5213fd80"/>
  <linearGradient xlink:href="#1f9811ff-c8f4-40a6-be63-e60ca0341cbe" y2="254" x2="731.5" y1="285" x1="731.5" id="bd740118-0fc8-46fe-baa7-1287731d1ce1"/>
  <linearGradient xlink:href="#1f9811ff-c8f4-40a6-be63-e60ca0341cbe" y2="302" x2="731.5" y1="333" x1="731.5" id="be3dcc85-6798-4804-ad40-40dd5e1bf54d"/>
  <linearGradient xlink:href="#1f9811ff-c8f4-40a6-be63-e60ca0341cbe" y2="350" x2="731.5" y1="381" x1="731.5" id="7951aed1-d6b7-43ca-8fc6-4bf3d931fa96"/>
  <linearGradient xlink:href="#1f9811ff-c8f4-40a6-be63-e60ca0341cbe" y2="398" x2="731.5" y1="429" x1="731.5" id="f7ec873f-c4fc-49e9-9fd3-dd83f2d4e56d"/>
  <linearGradient xlink:href="#1f9811ff-c8f4-40a6-be63-e60ca0341cbe" y2="446" x2="731.5" y1="477" x1="731.5" id="ccdfa92b-51d8-4ad9-a821-9e1bef0af2d7"/>
  <linearGradient xlink:href="#1f9811ff-c8f4-40a6-be63-e60ca0341cbe" y2="494" x2="731.5" y1="525" x1="731.5" id="073d1fbf-61de-45f9-b512-c4899ce091e5"/>
  <linearGradient xlink:href="#1f9811ff-c8f4-40a6-be63-e60ca0341cbe" y2="542" x2="731.5" y1="573" x1="731.5" id="24835175-14ba-470d-95d2-6a8277fcc694"/>
  <linearGradient xlink:href="#1f9811ff-c8f4-40a6-be63-e60ca0341cbe" x2="731.5" x1="731.5" id="5ff08f58-18b8-40ea-89dd-f61e941fbca5"/>
  <linearGradient xlink:href="#1f9811ff-c8f4-40a6-be63-e60ca0341cbe" y2="223.5" x2="222" y1="223.5" x1="51" id="35037972-f4cb-4e52-85d9-6feea861c78a"/>
  <linearGradient xlink:href="#1f9811ff-c8f4-40a6-be63-e60ca0341cbe" y2="270.5" x2="222" y1="270.5" x1="51" id="c11cf938-6a5f-4793-b594-126852022070"/>
  <linearGradient xlink:href="#1f9811ff-c8f4-40a6-be63-e60ca0341cbe" y2="317.5" x2="222" y1="317.5" x1="51" id="68e8be81-276e-4a4c-a07a-ad0995a3c0be"/>
  <linearGradient xlink:href="#1f9811ff-c8f4-40a6-be63-e60ca0341cbe" y2="365.5" x2="222" y1="365.5" x1="51" id="0822cc54-0c46-479a-a5ec-03e9a82962c7"/>
  <linearGradient xlink:href="#1f9811ff-c8f4-40a6-be63-e60ca0341cbe" y2="413.5" x2="222" y1="413.5" x1="51" id="7019b20f-90f6-479e-a238-57a05bc6be32"/>
  <linearGradient xlink:href="#1f9811ff-c8f4-40a6-be63-e60ca0341cbe" y2="461.5" x2="222" y1="461.5" x1="51" id="d42fcc48-79e2-414c-a733-2be802693088"/>
  <linearGradient xlink:href="#06147ff9-8cd2-48ac-a1c1-caecd7b6d6a5" y2="664" x2="735" y1="664" x1="132" id="0c4558fc-2870-4523-bb15-f13635f1ebad"/>
  <linearGradient xlink:href="#06147ff9-8cd2-48ac-a1c1-caecd7b6d6a5" y2="50" x2="435" y1="89" x1="435" id="5f8c78d2-e119-41dc-88f5-5bfd3b7b4286"/>
  <linearGradient xlink:href="#06147ff9-8cd2-48ac-a1c1-caecd7b6d6a5" y2="406" x2="601" y1="704.8" x1="601" id="0b3309b2-8c80-4e02-ba09-43858a03760e"/>
 </defs>
 <title>welcome</title>
 <g>
  <title>Layer 1</title>
  <rect id="svg_1" opacity="0.2" fill="#0984e3" height="731" width="731" x="69"/>
  <rect id="svg_2" opacity="0.5" fill="#0984e3" height="595.5" width="510" y="68.25" x="179"/>
  <rect id="svg_3" fill="url(#06147ff9-8cd2-48ac-a1c1-caecd7b6d6a5)" height="525" width="273" y="105" x="595"/>
  <rect id="svg_4" fill="url(#a49b107c-cf66-4ec6-8282-86ab0caa351c)" height="525" width="273" y="107"/>
  <rect id="svg_5" fill="#0984e3" height="506" width="255" y="113" x="604"/>
  <rect id="svg_6" fill="#0984e3" transform="rotate(-180, 439, 816.5)" height="506" width="255" y="1014" x="614"/>
  <rect id="svg_7" fill="url(#1f9811ff-c8f4-40a6-be63-e60ca0341cbe)" height="31" width="171" y="159" x="51"/>
  <rect id="svg_8" fill="url(#b9a200bd-353c-4381-b6e1-073e5213fd80)" height="31" width="171" y="206" x="647"/>
  <rect id="svg_9" fill="url(#bd740118-0fc8-46fe-baa7-1287731d1ce1)" height="31" width="171" y="254" x="646"/>
  <rect id="svg_10" fill="url(#be3dcc85-6798-4804-ad40-40dd5e1bf54d)" height="31" width="171" y="302" x="646"/>
  <rect id="svg_11" fill="url(#7951aed1-d6b7-43ca-8fc6-4bf3d931fa96)" height="31" width="171" y="350" x="646"/>
  <rect id="svg_12" fill="url(#f7ec873f-c4fc-49e9-9fd3-dd83f2d4e56d)" height="31" width="171" y="398" x="646"/>
  <rect id="svg_13" fill="url(#ccdfa92b-51d8-4ad9-a821-9e1bef0af2d7)" height="31" width="171" y="446" x="646"/>
  <rect id="svg_14" fill="url(#073d1fbf-61de-45f9-b512-c4899ce091e5)" height="31" width="171" y="494" x="646"/>
  <rect id="svg_15" fill="url(#24835175-14ba-470d-95d2-6a8277fcc694)" height="31" width="171" y="542" x="646"/>
  <rect id="svg_16" fill="url(#5ff08f58-18b8-40ea-89dd-f61e941fbca5)" height="31" width="171" y="159" x="646"/>
  <rect id="svg_17" fill="url(#35037972-f4cb-4e52-85d9-6feea861c78a)" height="31" width="171" y="208" x="51"/>
  <rect id="svg_18" fill="url(#c11cf938-6a5f-4793-b594-126852022070)" height="31" width="171" y="255" x="51"/>
  <rect id="svg_19" fill="url(#68e8be81-276e-4a4c-a07a-ad0995a3c0be)" height="31" width="171" y="302" x="51"/>
  <rect id="svg_20" fill="url(#0822cc54-0c46-479a-a5ec-03e9a82962c7)" height="31" width="171" y="350" x="51"/>
  <rect id="svg_21" fill="url(#7019b20f-90f6-479e-a238-57a05bc6be32)" height="31" width="171" y="398" x="51"/>
  <rect id="svg_22" fill="#fff" height="24" width="164" y="163" x="55"/>
  <rect id="svg_23" fill="#fff" height="24" width="164" y="210" x="54.5"/>
  <rect id="svg_24" fill="#fff" height="24" width="164" y="258" x="54.5"/>
  <rect id="svg_25" fill="#fff" height="24" width="164" y="306" x="54.5"/>
  <rect id="svg_26" fill="#fff" height="24" width="164" y="354" x="54.5"/>
  <rect id="svg_27" fill="#fff" height="24" width="164" y="402" x="54.5"/>
  <rect id="svg_28" fill="url(#d42fcc48-79e2-414c-a733-2be802693088)" height="31" width="171" y="446" x="51"/>
  <rect id="svg_29" fill="#fff" height="24" width="164" y="450" x="54.5"/>
  <rect id="svg_30" fill="#fff" height="24" width="164" y="450" x="54.5"/>
  <rect id="svg_31" fill="#fff" height="24" width="164" y="498" x="54.5"/>
  <rect id="svg_32" fill="#fff" height="24" width="164" y="546" x="54.5"/>
  <rect id="svg_33" fill="#fff" height="24" width="164" y="162" x="650"/>
  <rect id="svg_34" fill="#fff" height="24" width="164" y="210" x="650"/>
  <rect id="svg_35" fill="#fff" height="24" width="164" y="258" x="650"/>
  <rect id="svg_36" fill="#fff" height="24" width="164" y="306" x="650"/>
  <rect id="svg_37" fill="#fff" height="24" width="164" y="354" x="650"/>
  <rect id="svg_38" fill="#fff" height="24" width="164" y="402" x="650"/>
  <rect id="svg_39" fill="#fff" height="24" width="164" y="450" x="650"/>
  <rect id="svg_40" fill="#fff" height="24" width="164" y="498" x="650"/>
  <rect id="svg_41" fill="#fff" height="24" width="164" y="546" x="650"/>
  <rect id="svg_42" fill="url(#0c4558fc-2870-4523-bb15-f13635f1ebad)" height="38" width="603" y="645" x="132"/>
  <rect id="svg_43" fill="#0984e3" height="30" width="594" y="649" x="137"/>
  <rect id="svg_44" fill="url(#5f8c78d2-e119-41dc-88f5-5bfd3b7b4286)" height="39" width="602" y="50" x="134"/>
  <rect id="svg_45" fill="#0984e3" height="30" width="594" y="53" x="137"/>
  <rect id="svg_46" opacity="0.5" fill="#263238" height="506" width="292" y="113" x="289"/>
  <path id="svg_47" fill="url(#0b3309b2-8c80-4e02-ba09-43858a03760e)" transform="translate(-166 -84.5)" d="m825.66,417.55c7,9.38 -3.48,20.46 -3.48,20.46l1.76,0.61c-2.59,2.87 -12.82,15.82 -52.26,74.4c-50.5,75 -118.55,93.71 -118.55,93.71l0,0a84,84 0 0 0 -27.73,-14.31l0,-7.08a83,83 0 0 0 55.3,-53.48a85.08,85.08 0 0 0 9.14,-38.44c0,-48 -39.77,-86.94 -88.82,-86.94s-88.82,38.93 -88.82,86.94a85.08,85.08 0 0 0 9.14,38.44a83,83 0 0 0 55.3,53.48l0,7.08a84,84 0 0 0 -27.73,14.31l0,0s-68.08,-18.73 -118.58,-93.73c-39.44,-58.58 -49.67,-71.54 -52.26,-74.4l1.76,-0.61s-10.45,-11.08 -3.48,-20.46s-46.15,-20.46 -40.06,0s13.93,30.69 13.93,30.69s111.2,175.38 169.25,204.36a80.43,80.43 0 0 0 -2.06,18.12l0,34.1l167.18,0l0,-34.1a80.43,80.43 0 0 0 -2.06,-18.12c58,-29 169.25,-204.35 169.25,-204.35s7.84,-10.23 13.93,-30.69s-47.02,-9.37 -40.05,0.01z"/>
  <circle id="svg_48" fill="#263238" r="85.06" cy="413.47" cx="435"/>
  <circle id="svg_49" fill="#f8c198" r="80.06" cy="426.82" cx="435"/>
  <circle id="svg_50" fill="#263238" r="10.01" cy="409.3" cx="403.31"/>
  <circle id="svg_51" fill="#263238" r="10.01" cy="409.3" cx="468.36"/>
  <path id="svg_52" fill="#fff" d="m458.35,463.5c0,6 -10.45,15.85 -23.35,15.85s-23.35,-9.85 -23.35,-15.85s10.45,-5.84 23.35,-5.84s23.35,-0.16 23.35,5.84z"/>
  <circle id="svg_53" fill="#fff" r="3.34" cy="409.3" cx="405.81"/>
  <circle id="svg_54" fill="#fff" r="3.34" cy="409.3" cx="471.69"/>
  <path id="svg_55" fill="#263238" d="m443,382.38c-4.88,0 -9.26,-4.24 -9.78,-9.09a12,12 0 0 1 7,-11.75a3.42,3.42 0 0 1 1.47,-0.38c1.68,0 2.51,2 3.05,3.59c1.68,4.92 4.66,9.72 9.34,12s11.22,1.11 13.69,-3.47c-6.62,-2.95 -9.45,-12.21 -5.6,-18.35c1.49,-2.37 3.81,-4.38 4.28,-7.14c0.86,-5 -4.62,-8.64 -9.47,-10.14c-14,-4.33 -62.8,-4.81 -65.49,16.08c-2.82,22.04 36.14,31.57 51.51,28.65z"/>
  <ellipse id="svg_56" fill="#f8c198" transform="rotate(-21.53, -317.38, 143.66)" ry="14.18" rx="5" cy="655.81" cx="206.89"/>
  <ellipse id="svg_57" fill="#f8c198" transform="rotate(-68.47, -213.42, 870.11)" ry="5" rx="14.18" cy="1382.25999" cx="464.31"/>
  <path id="svg_58" fill="#022f52" d="m484.91,524.34s65.17,-18.3 113.54,-91.69s50.87,-73.59 50.87,-73.59l25.85,10.21s-120.08,193.48 -171.78,203.49s-18.48,-48.42 -18.48,-48.42z"/>
  <path id="svg_59" fill="#f8c198" d="m646.83,359.27s10,-10.84 3.34,-20s44.2,-20 38.36,0s-13.34,30 -13.34,30l-28.36,-10z"/>
  <path id="svg_60" fill="#022f52" d="m385.09,524.34s-65.17,-18.3 -113.54,-91.69s-50.87,-73.59 -50.87,-73.59l-25.85,10.21s120.09,193.48 171.8,203.49s18.46,-48.42 18.46,-48.42z"/>
  <path id="svg_61" fill="#f8c198" d="m223.17,359.27s-10,-10.84 -3.34,-20s-44.2,-20 -38.36,0s13.34,30 13.34,30l28.36,-10z"/>
  <g id="svg_62" opacity="0.2">
   <path id="svg_63" fill="#fff" d="m462.29,342.77c-0.48,2.76 -2.8,4.76 -4.28,7.14c-3.37,5.38 -1.62,13.16 3.32,17a12.79,12.79 0 0 1 0.85,-11.14c1.49,-2.37 3.81,-4.38 4.28,-7.14c0.54,-3.13 -1.41,-5.73 -4.13,-7.6a6,6 0 0 1 -0.04,1.74z"/>
   <path id="svg_64" fill="#fff" d="m441.46,362.01c-0.32,-0.75 -0.62,-1.51 -0.88,-2.27c-0.54,-1.59 -1.37,-3.54 -3.05,-3.59a3.42,3.42 0 0 0 -1.47,0.38a12,12 0 0 0 -7,11.75a10.53,10.53 0 0 0 4.47,7.35a9.4,9.4 0 0 1 -0.3,-1.51a12,12 0 0 1 7,-11.75a3.87,3.87 0 0 1 1.23,-0.36z"/>
   <path id="svg_65" fill="#fff" d="m434.41,377.85c-12.16,0.51 -31.78,-4.13 -41.45,-14c7.22,15.36 37.05,21.79 50,19.32a10.08,10.08 0 0 1 -8.55,-5.32z"/>
   <path id="svg_66" fill="#fff" d="m462.68,369.61c-2.92,3.43 -8.58,4.15 -12.75,2.12a14.54,14.54 0 0 1 -3.7,-2.61a17.84,17.84 0 0 0 7.87,8.44c4.68,2.27 11.22,1.11 13.69,-3.47a11.88,11.88 0 0 1 -5.11,-4.48z"/>
  </g>
  <path id="svg_67" opacity="0.2" fill="#fff" d="m671.85,369.27s-120.09,193.48 -171.85,203.49a60.33,60.33 0 0 1 -9.07,1.11a53.05,53.05 0 0 0 12.41,-1.11c51.71,-10 171.8,-203.49 171.8,-203.49l-2.68,-0.95c-0.37,0.63 -0.61,0.95 -0.61,0.95z"/>
  <path id="svg_68" opacity="0.2" fill="#fff" d="m198.15,369.27s120.09,193.48 171.85,203.49a60.33,60.33 0 0 0 9.07,1.11a53.05,53.05 0 0 1 -12.41,-1.11c-51.71,-10 -171.8,-203.49 -171.8,-203.49l2.68,-0.95c0.37,0.63 0.61,0.95 0.61,0.95z"/>
  <path id="svg_69" fill="#022f52" d="m435,506.88l0,0a80.06,80.06 0 0 1 80.06,80.06l0,33.36a0,0 0 0 1 0,0l-160.12,0a0,0 0 0 1 0,0l0,-33.36a80.06,80.06 0 0 1 80.06,-80.06z"/>
  <path id="svg_70" opacity="0.2" fill="#fff" d="m435.83,507.3l0,0a80.93,80.93 0 0 0 -8.72,0.47c1,0 1.91,-0.06 2.88,-0.06l0,0a80.06,80.06 0 0 1 80.06,80.06l0,32.94l5.84,0l0,-33.35a80.06,80.06 0 0 0 -80.06,-80.06z"/>
  <path id="svg_71" opacity="0.2" fill="#fff" d="m434.17,507.3l0,0a80.93,80.93 0 0 1 8.72,0.47c-1,0 -1.91,-0.06 -2.88,-0.06l0,0a80.06,80.06 0 0 0 -80.06,80.06l0,32.94l-5.84,0l0,-33.35a80.06,80.06 0 0 1 80.06,-80.06z"/>
  <rect id="svg_72" fill="#f8c198" ry="23.35" rx="23.35" height="56.29" width="46.7" y="484.78" x="411.65"/>
  <text font-style="normal" font-weight="normal" xml:space="preserve" text-anchor="start" font-family="'Rounded Mplus 1c Light'" font-size="53" stroke-width="0" id="svg_73" y="-30.54548" x="127.8634" fill="#000000">Welcome to my Portfolio!</text>
  <text xml:space="preserve" text-anchor="start" font-family="'Rounded Mplus 1c Light'" font-size="53" stroke-width="0" id="svg_76" y="-6.7313" x="535.53827" fill="#0984e3">W</text>
  <text xml:space="preserve" text-anchor="start" font-family="'Rounded Mplus 1c Light'" font-size="53" stroke-width="0" id="svg_77" y="-48.2697" x="298.61554" fill="#000000">Welcome</text>
  <text transform="matrix(1, 0, 0, 1, 0, 0)" font-style="normal" font-weight="normal" xml:space="preserve" text-anchor="start" font-family="sans-serif" font-size="45" stroke-width="0" id="svg_78" y="40.30763" x="184.28241" fill="#0984e3">Welcome to my Portfolio!</text>
 </g>
</svg>